<svg aria-hidden="true" style="position: absolute; width: 0; height: 0; overflow: hidden;" version="1.1" xmlns="http://www.w3.org/2000/svg" xmlns:xlink="http://www.w3.org/1999/xlink">
<defs>
<symbol id="icon-astronaut-1" viewBox="0 0 33 32">
<path fill="#4d5ae5" style="fill: var(--color1, #4d5ae5)" d="M31.512 4.196c-0.058-0.179-0.213-0.309-0.399-0.336l-1.772-0.258-0.793-1.606c-0.166-0.338-0.721-0.338-0.887 0l-0.793 1.606-1.772 0.258c-0.186 0.027-0.341 0.157-0.4 0.336-0.058 0.179-0.010 0.376 0.125 0.507l1.283 1.25-0.303 1.765c-0.032 0.186 0.045 0.373 0.196 0.484 0.154 0.112 0.355 0.126 0.521 0.038l1.585-0.834 1.585 0.834c0.072 0.038 0.152 0.057 0.231 0.057 0.102 0 0.205-0.032 0.291-0.094 0.152-0.111 0.229-0.298 0.196-0.484l-0.303-1.765 1.283-1.25c0.134-0.132 0.183-0.328 0.125-0.507zM29.228 5.427c-0.116 0.113-0.17 0.278-0.142 0.438l0.177 1.033-0.928-0.488c-0.072-0.038-0.151-0.057-0.231-0.057s-0.158 0.019-0.231 0.057l-0.928 0.488 0.177-1.033c0.028-0.16-0.026-0.324-0.142-0.438l-0.751-0.732 1.038-0.151c0.161-0.023 0.3-0.125 0.372-0.271l0.464-0.94 0.464 0.94c0.072 0.146 0.211 0.247 0.372 0.271l1.038 0.151-0.75 0.732z"></path>
<path fill="#4d5ae5" style="fill: var(--color1, #4d5ae5)" d="M26.095 19.035h-0.989v0.989h0.989v-0.989z"></path>
<path fill="#4d5ae5" style="fill: var(--color1, #4d5ae5)" d="M26.095 21.014h-0.989v0.989h0.989v-0.989z"></path>
<path fill="#4d5ae5" style="fill: var(--color1, #4d5ae5)" d="M27.084 20.024h-0.989v0.989h0.989v-0.989z"></path>
<path fill="#4d5ae5" style="fill: var(--color1, #4d5ae5)" d="M25.105 20.024h-0.989v0.989h0.989v-0.989z"></path>
<path fill="#4d5ae5" style="fill: var(--color1, #4d5ae5)" d="M22.632 24.477h-0.989v0.989h0.989v-0.989z"></path>
<path fill="#4d5ae5" style="fill: var(--color1, #4d5ae5)" d="M22.632 26.455h-0.989v0.989h0.989v-0.989z"></path>
<path fill="#4d5ae5" style="fill: var(--color1, #4d5ae5)" d="M23.621 25.466h-0.989v0.989h0.989v-0.989z"></path>
<path fill="#4d5ae5" style="fill: var(--color1, #4d5ae5)" d="M21.643 25.466h-0.989v0.989h0.989v-0.989z"></path>
<path fill="#4d5ae5" style="fill: var(--color1, #4d5ae5)" d="M16.696 22.498h-0.989v0.989h0.989v-0.989z"></path>
<path fill="#4d5ae5" style="fill: var(--color1, #4d5ae5)" d="M16.696 24.477h-0.989v0.989h0.989v-0.989z"></path>
<path fill="#4d5ae5" style="fill: var(--color1, #4d5ae5)" d="M17.685 23.487h-0.989v0.989h0.989v-0.989z"></path>
<path fill="#4d5ae5" style="fill: var(--color1, #4d5ae5)" d="M15.706 23.487h-0.989v0.989h0.989v-0.989z"></path>
<path fill="#4d5ae5" style="fill: var(--color1, #4d5ae5)" d="M7.296 5.678h-0.989v0.989h0.989v-0.989z"></path>
<path fill="#4d5ae5" style="fill: var(--color1, #4d5ae5)" d="M7.296 7.657h-0.989v0.989h0.989v-0.989z"></path>
<path fill="#4d5ae5" style="fill: var(--color1, #4d5ae5)" d="M8.286 6.668h-0.989v0.989h0.989v-0.989z"></path>
<path fill="#4d5ae5" style="fill: var(--color1, #4d5ae5)" d="M6.307 6.668h-0.989v0.989h0.989v-0.989z"></path>
<path fill="#2e2f42" style="fill: var(--color2, #2e2f42)" d="M24.779 13.133c-0.267-0.36-0.658-0.591-1.102-0.653-0.446-0.063-0.887 0.054-1.243 0.326l-1.162 0.89-1.76 1.314-1.259-0.502c2.246-1.008 3.816-3.254 3.816-5.862 0-3.546-2.896-6.431-6.457-6.431s-6.457 2.885-6.457 6.431c0 1.285 0.384 2.48 1.039 3.486l-2.564-0.022c-0.001 0-0.003 0-0.004 0-0.008 0-0.014 0.004-0.022 0.005-0.049 0.002-0.097 0.012-0.144 0.029-0.012 0.005-0.024 0.007-0.036 0.012-0.006 0.002-0.012 0.003-0.018 0.006l-2.999 1.481c-0.001 0-0.001 0-0.001 0l-1.756 0.845c-0.019 0.008-0.039 0.020-0.058 0.033-0.7 0.466-0.938 1.381-0.555 2.129 0.204 0.398 0.552 0.691 0.979 0.825 0.165 0.051 0.333 0.077 0.5 0.077 0.269 0 0.535-0.066 0.779-0.196l1.287-0.685 2.1-1.084 1.258-0.007-5.047 5.023c-0 0-0.001 0-0.002 0.001l-1.242 1.237c-0.293 0.292-0.455 0.679-0.455 1.092s0.161 0.801 0.455 1.093c0.301 0.3 0.698 0.45 1.094 0.45s0.792-0.15 1.095-0.45l1.219-1.214 1.615-1.206 0.836 0.832-1.634 1.627c-0 0.001-0.001 0.001-0.001 0.001l-1.242 1.237c-0.293 0.292-0.455 0.679-0.455 1.092s0.161 0.801 0.455 1.093c0.301 0.3 0.698 0.45 1.094 0.45s0.793-0.15 1.095-0.45l3.229-3.215c0.001-0.001 0.001-0.001 0.001-0.002l0.937-0.928-0.003-0.003c0.006-0.006 0.014-0.008 0.020-0.014l4.792-5.248 3.219 0.458c0.023 0.003 0.047 0.005 0.070 0.005 0.060 0 0.118-0.014 0.174-0.036 0.016-0.006 0.031-0.014 0.046-0.022 0.018-0.009 0.037-0.014 0.053-0.025l2.98-1.979c0.011-0.007 0.017-0.019 0.027-0.027 0.012-0.009 0.027-0.013 0.038-0.024l1.179-1.105c0.614-0.575 0.698-1.517 0.197-2.191zM3.831 16.482c-0.161 0.086-0.343 0.103-0.518 0.048-0.173-0.054-0.314-0.172-0.396-0.332-0.149-0.291-0.063-0.645 0.199-0.837l1.218-0.586 0.417 1.217-0.92 0.489zM7.075 14.787l-1.436 0.742-0.407-1.19 1.88-0.928-0.037 1.376zM21.080 8.646c0 0.852-0.203 1.655-0.556 2.374l-3.878-1.762c-0.041-0.532-0.317-0.997-0.731-1.287l1.358-4.508c2.205 0.702 3.807 2.759 3.807 5.183zM10.145 8.646c0-3 2.453-5.442 5.467-5.442 0.234 0 0.464 0.020 0.691 0.048l-1.328 4.409c-0.018-0-0.035-0.005-0.053-0.005-0.958 0-1.737 0.777-1.737 1.731s0.779 1.731 1.737 1.731c0.644 0 1.201-0.356 1.501-0.876l3.583 1.628c-0.997 1.342-2.592 2.217-4.393 2.217-3.015 0-5.467-2.441-5.467-5.442zM15.67 9.389c0 0.409-0.335 0.742-0.748 0.742s-0.747-0.333-0.747-0.742c0-0.409 0.335-0.742 0.747-0.742s0.748 0.333 0.748 0.742zM4.141 23.324c-0.219 0.217-0.574 0.217-0.792 0-0.105-0.105-0.163-0.244-0.163-0.392s0.058-0.286 0.163-0.391l0.892-0.889 0.79 0.786-0.889 0.885zM7.122 26.787c-0.219 0.217-0.574 0.218-0.793 0-0.105-0.105-0.163-0.244-0.163-0.392s0.058-0.286 0.163-0.391l0.893-0.889 0.79 0.786-0.89 0.886zM10.352 23.569c-0.001 0-0.001 0-0.002 0.001l-1.637 1.632-0.79-0.786 1.635-1.628c0 0 0 0 0-0s0.001-0 0.001-0.001c0.037-0.037 0.060-0.082 0.083-0.126 0.006-0.013 0.019-0.024 0.024-0.037 0.015-0.038 0.018-0.079 0.024-0.119 0.003-0.023 0.013-0.044 0.013-0.067 0-0.033-0.012-0.065-0.019-0.098-0.006-0.030-0.006-0.060-0.017-0.089-0.019-0.047-0.051-0.088-0.085-0.128-0.009-0.011-0.013-0.025-0.023-0.035 0 0 0 0-0.001 0s-0.001-0.002-0.001-0.002l-1.49-1.484c-0.016-0.016-0.036-0.022-0.054-0.036-0.026-0.020-0.051-0.039-0.081-0.053-0.028-0.014-0.057-0.022-0.087-0.030-0.032-0.009-0.062-0.016-0.096-0.018-0.030-0.002-0.058 0.001-0.089 0.004-0.033 0.004-0.064 0.008-0.096 0.019-0.031 0.010-0.059 0.025-0.088 0.042-0.018 0.010-0.039 0.014-0.056 0.027l-1.645 1.228-0.836-0.832 2.225-2.213 4.045 3.978-0.86 0.852zM16.676 17.061c-0.014-0.002-0.028 0.003-0.042 0.003-0.036-0.002-0.071 0-0.107 0.006-0.028 0.005-0.055 0.010-0.082 0.020-0.032 0.011-0.060 0.026-0.090 0.044-0.028 0.017-0.053 0.035-0.077 0.057-0.012 0.010-0.026 0.015-0.037 0.027l-4.358 4.773-4.014-3.948 2.628-2.614c0.193-0.193 0.194-0.506 0.002-0.7-0.097-0.097-0.226-0.145-0.354-0.145v-0l-2.058 0.012 0.026-1.491 2.879 0.025c1.173 1.2 2.81 1.949 4.62 1.949 0.406 0 0.801-0.042 1.187-0.114 0.037 0.030 0.074 0.060 0.12 0.079l2.235 0.89 0.141 0.703 0.165 0.821-2.785-0.396zM20.425 17.226l-0.29-1.445 1.342-1.002 0.878 1.165-1.929 1.281zM23.906 14.601l-0.777 0.728-0.864-1.147 0.771-0.591c0.144-0.111 0.326-0.156 0.504-0.133 0.179 0.025 0.337 0.119 0.445 0.264 0.201 0.271 0.167 0.648-0.079 0.879z"></path>
<path fill="#2e2f42" style="fill: var(--color2, #2e2f42)" d="M14.472 17.2l-1.988-1.979c-0.192-0.192-0.505-0.192-0.698 0l-1.987 1.979c-0.093 0.093-0.145 0.219-0.145 0.351s0.052 0.258 0.145 0.351l1.987 1.979c0.096 0.096 0.223 0.144 0.349 0.144s0.253-0.048 0.349-0.144l1.988-1.979c0.093-0.093 0.146-0.219 0.146-0.351s-0.052-0.258-0.146-0.351zM12.135 18.832l-1.286-1.281 1.286-1.281 1.287 1.281-1.287 1.281z"></path>
<path fill="#2e2f42" style="fill: var(--color2, #2e2f42)" d="M17.776 4.703l-0.239 0.961c0.066 0.016 1.612 0.419 1.612 1.993h0.989c-0-1.871-1.545-2.751-2.362-2.954z"></path>
<path fill="#2e2f42" style="fill: var(--color2, #2e2f42)" d="M20.138 8.646h-0.989v0.989h0.989v-0.989z"></path>
</symbol>
<symbol id="icon-instagram-2" viewBox="0 0 32 32">
<path fill="#f4f4fd" style="fill: var(--color3, #f4f4fd)" d="M31.969 9.408c-0.075-1.7-0.35-2.869-0.744-3.882-0.406-1.075-1.031-2.038-1.85-2.838-0.8-0.813-1.769-1.444-2.832-1.844-1.019-0.394-2.182-0.669-3.882-0.744-1.713-0.081-2.257-0.1-6.601-0.1s-4.888 0.019-6.595 0.094c-1.7 0.075-2.869 0.35-3.882 0.744-1.075 0.406-2.038 1.031-2.838 1.85-0.813 0.8-1.444 1.769-1.844 2.832-0.394 1.019-0.669 2.182-0.744 3.882-0.081 1.713-0.1 2.257-0.1 6.601s0.019 4.888 0.094 6.595c0.075 1.7 0.35 2.869 0.744 3.882 0.406 1.075 1.038 2.038 1.85 2.838 0.8 0.813 1.769 1.444 2.832 1.844 1.019 0.394 2.182 0.669 3.882 0.744 1.706 0.075 2.25 0.094 6.595 0.094s4.888-0.019 6.595-0.094c1.7-0.075 2.869-0.35 3.882-0.744 2.151-0.831 3.851-2.532 4.682-4.682 0.394-1.019 0.669-2.182 0.744-3.882 0.075-1.707 0.094-2.25 0.094-6.595s-0.006-4.888-0.081-6.595zM29.087 22.473c-0.069 1.563-0.331 2.407-0.55 2.969-0.538 1.394-1.644 2.5-3.038 3.038-0.563 0.219-1.413 0.481-2.969 0.55-1.688 0.075-2.194 0.094-6.464 0.094s-4.782-0.019-6.464-0.094c-1.563-0.069-2.407-0.331-2.969-0.55-0.694-0.256-1.325-0.663-1.838-1.194-0.531-0.519-0.938-1.144-1.194-1.838-0.219-0.563-0.481-1.413-0.55-2.969-0.075-1.688-0.094-2.194-0.094-6.464s0.019-4.782 0.094-6.464c0.069-1.563 0.331-2.407 0.55-2.969 0.256-0.694 0.663-1.325 1.2-1.838 0.519-0.531 1.144-0.938 1.838-1.194 0.563-0.219 1.413-0.481 2.969-0.55 1.688-0.075 2.194-0.094 6.464-0.094 4.276 0 4.782 0.019 6.464 0.094 1.563 0.069 2.407 0.331 2.969 0.55 0.694 0.256 1.325 0.662 1.838 1.194 0.531 0.519 0.938 1.144 1.194 1.838 0.219 0.563 0.481 1.413 0.55 2.969 0.075 1.688 0.094 2.194 0.094 6.464s-0.019 4.77-0.094 6.458z"></path>
<path fill="#f4f4fd" style="fill: var(--color3, #f4f4fd)" d="M16.059 7.783c-4.538 0-8.22 3.682-8.22 8.22s3.682 8.22 8.22 8.22c4.538 0 8.22-3.682 8.22-8.22s-3.682-8.22-8.22-8.22zM16.059 21.335c-2.944 0-5.332-2.388-5.332-5.332s2.388-5.332 5.332-5.332c2.944 0 5.332 2.388 5.332 5.332s-2.388 5.332-5.332 5.332z"></path>
<path fill="#f4f4fd" style="fill: var(--color3, #f4f4fd)" d="M26.524 7.458c0 1.060-0.859 1.919-1.919 1.919s-1.919-0.859-1.919-1.919c0-1.060 0.859-1.919 1.919-1.919s1.919 0.859 1.919 1.919z"></path>
</symbol>
<symbol id="icon-twitter-1" viewBox="0 0 32 32">
<path fill="#f4f4fd" style="fill: var(--color3, #f4f4fd)" d="M32 6.078c-1.19 0.522-2.458 0.868-3.78 1.036 1.36-0.812 2.398-2.088 2.886-3.626-1.268 0.756-2.668 1.29-4.16 1.588-1.204-1.282-2.92-2.076-4.792-2.076-3.632 0-6.556 2.948-6.556 6.562 0 0.52 0.044 1.020 0.152 1.496-5.454-0.266-10.28-2.88-13.522-6.862-0.566 0.982-0.898 2.106-0.898 3.316 0 2.272 1.17 4.286 2.914 5.452-1.054-0.020-2.088-0.326-2.964-0.808 0 0.020 0 0.046 0 0.072 0 3.188 2.274 5.836 5.256 6.446-0.534 0.146-1.116 0.216-1.72 0.216-0.42 0-0.844-0.024-1.242-0.112 0.85 2.598 3.262 4.508 6.13 4.57-2.232 1.746-5.066 2.798-8.134 2.798-0.538 0-1.054-0.024-1.57-0.090 2.906 1.874 6.35 2.944 10.064 2.944 12.072 0 18.672-10 18.672-18.668 0-0.29-0.010-0.57-0.024-0.848 1.302-0.924 2.396-2.078 3.288-3.406z"></path>
</symbol>
<symbol id="icon-linkedin-1" viewBox="0 0 32 32">
<path fill="#f4f4fd" style="fill: var(--color3, #f4f4fd)" d="M31.992 32v-0.001h0.008v-11.736c0-5.741-1.236-10.164-7.948-10.164-3.227 0-5.392 1.771-6.276 3.449h-0.093v-2.913h-6.364v21.364h6.627v-10.579c0-2.785 0.528-5.479 3.977-5.479 3.399 0 3.449 3.179 3.449 5.657v10.401h6.62z"></path>
<path fill="#f4f4fd" style="fill: var(--color3, #f4f4fd)" d="M0.528 10.636h6.635v21.364h-6.635v-21.364z"></path>
<path fill="#f4f4fd" style="fill: var(--color3, #f4f4fd)" d="M3.843-0c-2.121 0-3.843 1.721-3.843 3.843s1.721 3.879 3.843 3.879c2.121 0 3.843-1.757 3.843-3.879-0.001-2.121-1.723-3.843-3.843-3.843v0z"></path>
</symbol>
<symbol id="icon-facebook-1" viewBox="0 0 32 32">
<path fill="#f4f4fd" style="fill: var(--color3, #f4f4fd)" d="M21.329 5.313h2.921v-5.088c-0.504-0.069-2.237-0.225-4.256-0.225-4.212 0-7.097 2.649-7.097 7.519v4.481h-4.648v5.688h4.648v14.312h5.699v-14.311h4.46l0.708-5.688h-5.169v-3.919c0.001-1.644 0.444-2.769 2.735-2.769z"></path>
</symbol>
<symbol id="icon-antenna-1" viewBox="0 0 32 32">
<path fill="#2e2f42" style="fill: var(--color2, #2e2f42)" d="M30.773 22.098l-8.443-8.505 0.937-4.615c0.242 0.094 0.499 0.144 0.758 0.146h0.006c1.192 0.014 2.17-0.941 2.184-2.133s-0.941-2.17-2.133-2.184c-1.192-0.014-2.17 0.941-2.184 2.133-0.003 0.255 0.039 0.509 0.125 0.749l-4.96 0.605-8.091-8.133c-0.099-0.101-0.235-0.159-0.377-0.16-0.14 0.001-0.274 0.056-0.373 0.155l-1.513 1.504c-0.208 0.208-0.208 0.546 0 0.754l0.814 0.826c-3.153 5.798-2.129 12.978 2.519 17.663 0.043 0.041 0.092 0.074 0.146 0.098-0.034 0.18-0.051 0.364-0.052 0.547v6.187h-6.4c-1.472 0.002-2.665 1.195-2.667 2.667v1.067c0 0.295 0.239 0.533 0.533 0.533h24.533c0.295 0 0.533-0.239 0.533-0.533v-1.067c-0.002-1.472-1.195-2.665-2.667-2.667h-6.4v-2.742c1.003 0.21 2.024 0.317 3.049 0.32 2.458-0.003 4.877-0.615 7.040-1.783l0.818 0.823c0.099 0.101 0.235 0.159 0.377 0.16 0.14-0.001 0.274-0.056 0.373-0.155l1.513-1.504c0.208-0.208 0.208-0.546 0-0.754zM23.28 6.233c0.418-0.415 1.093-0.414 1.509 0.004s0.414 1.093-0.004 1.508c-0.2 0.199-0.47 0.31-0.752 0.31h-0.003c-0.589-0.003-1.064-0.483-1.061-1.072 0.002-0.282 0.115-0.552 0.314-0.751h-0.002zM22.024 9.738l-0.598 2.946-1.175-1.182 1.774-1.763zM21.419 8.836l-1.92 1.909-1.485-1.493 3.405-0.415zM24.004 28.8c0.884 0 1.6 0.716 1.6 1.6v0.533h-23.467v-0.533c0-0.884 0.716-1.6 1.6-1.6h20.267zM16.537 26.667v1.067h-5.333v-1.067h5.333zM11.204 25.6v-4.053c0-1.294 1.196-2.347 2.667-2.347s2.667 1.053 2.667 2.347v4.053h-5.333zM17.604 23.904v-2.357c0-1.882-1.675-3.413-3.733-3.413-1.331-0.020-2.576 0.657-3.281 1.786-4.058-4.274-4.971-10.645-2.279-15.887l18.602 18.708c-2.872 1.461-6.165 1.873-9.309 1.163zM28.893 23.22l-21.057-21.181 0.755-0.752 7.935 7.98c0.004 0 0.006 0.007 0.010 0.010l13.115 13.191-0.757 0.752z"></path>
<path fill="#4d5ae5" style="fill: var(--color1, #4d5ae5)" d="M13.876 20.267h-0.005c-0.884-0.001-1.601 0.714-1.602 1.598s0.714 1.601 1.598 1.602h0.005c0.884 0.001 1.601-0.714 1.602-1.598s-0.714-1.601-1.598-1.602zM14.249 22.245c-0.1 0.1-0.236 0.156-0.378 0.155-0.295-0.002-0.532-0.242-0.531-0.536 0.001-0.141 0.057-0.276 0.157-0.375s0.233-0.154 0.373-0.155c0.295 0.002 0.532 0.242 0.531 0.536-0.001 0.141-0.057 0.276-0.157 0.375h0.005z"></path>
</symbol>
<symbol id="icon-clock-1" viewBox="0 0 32 32">
<path fill="#2e2f42" style="fill: var(--color2, #2e2f42)" d="M31.297 15.301c-0.002-8.452-6.855-15.303-15.308-15.301s-15.303 6.855-15.301 15.308c0.001 6.658 4.307 12.551 10.649 14.576 0.061 0.019 0.124 0.029 0.187 0.029 0.121-0 0.239-0.032 0.342-0.094 0.135-0.080 0.236-0.207 0.283-0.356l3.865-12.25c1.057-0.005 1.909-0.866 1.903-1.923s-0.866-1.909-1.923-1.903c-0.284 0.001-0.565 0.067-0.82 0.191l-5.106-5.107c-0.253-0.245-0.657-0.238-0.902 0.016-0.239 0.247-0.239 0.639 0 0.886l5.103 5.109c-0.392 0.799-0.168 1.764 0.536 2.309l-3.683 11.673c-7.278-2.681-11.004-10.754-8.323-18.032s10.754-11.004 18.032-8.323c7.278 2.681 11.004 10.754 8.323 18.032-1.31 3.556-4.001 6.431-7.462 7.973l-0.398-1.874c-0.073-0.345-0.411-0.565-0.756-0.492-0.109 0.023-0.209 0.074-0.293 0.148l-3.837 3.426c-0.263 0.234-0.287 0.637-0.052 0.9 0.076 0.085 0.174 0.149 0.283 0.184l4.899 1.564c0.335 0.108 0.694-0.077 0.802-0.412 0.034-0.106 0.040-0.219 0.017-0.328l-0.391-1.839c5.664-2.388 9.342-7.942 9.329-14.089zM15.992 14.664c0.352 0 0.638 0.286 0.638 0.638s-0.286 0.638-0.638 0.638c-0.352 0-0.638-0.285-0.638-0.638s0.285-0.638 0.638-0.638zM18.093 29.528l2.184-1.948 0.603 2.84-2.787-0.892z"></path>
<path fill="#4d5ae5" style="fill: var(--color1, #4d5ae5)" d="M15.354 3.185v1.275c0 0.352 0.285 0.638 0.638 0.638s0.638-0.285 0.638-0.638v-1.275c0-0.352-0.286-0.638-0.638-0.638s-0.638 0.286-0.638 0.638z"></path>
<path fill="#4d5ae5" style="fill: var(--color1, #4d5ae5)" d="M3.876 14.664c-0.352 0-0.638 0.286-0.638 0.638s0.285 0.638 0.638 0.638h1.275c0.352 0 0.638-0.285 0.638-0.638s-0.285-0.638-0.638-0.638h-1.275z"></path>
<path fill="#4d5ae5" style="fill: var(--color1, #4d5ae5)" d="M28.108 15.939c0.352 0 0.638-0.285 0.638-0.638s-0.285-0.638-0.638-0.638h-1.275c-0.352 0-0.638 0.286-0.638 0.638s0.286 0.638 0.638 0.638h1.275z"></path>
</symbol>
<symbol id="icon-diagram-1" viewBox="0 0 32 32">
<path fill="#4d5ae5" style="fill: var(--color1, #4d5ae5)" d="M14.925 14.965h1.066v4.798h-1.066v-4.797z"></path>
<path fill="#4d5ae5" style="fill: var(--color1, #4d5ae5)" d="M19.19 17.097h1.066v2.665h-1.066v-2.665z"></path>
<path fill="#4d5ae5" style="fill: var(--color1, #4d5ae5)" d="M10.661 18.696h1.066v1.066h-1.066v-1.066z"></path>
<path fill="#4d5ae5" style="fill: var(--color1, #4d5ae5)" d="M7.463 18.163h1.066v1.599h-1.066v-1.599z"></path>
<path fill="#2e2f42" style="fill: var(--color2, #2e2f42)" d="M1.599 28.291h25.587c0.883 0 1.599-0.716 1.599-1.599v-2.132c0-0.883-0.716-1.599-1.599-1.599h-0.533v-13.293l3.028-2.868c0.703 0.346 1.553 0.136 2.013-0.499s0.396-1.508-0.152-2.068-1.42-0.644-2.065-0.198c-0.644 0.446-0.873 1.292-0.542 2.002l-2.281 2.163v-1.23c0-0.883-0.716-1.599-1.599-1.599h-21.322c-0.883 0-1.599 0.716-1.599 1.599v15.992h-0.533c-0.883 0-1.599 0.716-1.599 1.599v2.132c0 0.883 0.716 1.599 1.599 1.599zM30.384 4.837c0.294 0 0.533 0.239 0.533 0.533s-0.239 0.533-0.533 0.533c-0.294 0-0.533-0.239-0.533-0.533s0.239-0.533 0.533-0.533zM3.198 6.969c0-0.294 0.239-0.533 0.533-0.533h21.322c0.294 0 0.533 0.239 0.533 0.533v2.239l-1.066 1.013v-2.186c0-0.294-0.239-0.533-0.533-0.533h-19.19c-0.294 0-0.533 0.239-0.533 0.533v13.326c0 0.294 0.239 0.533 0.533 0.533h19.19c0.294 0 0.533-0.239 0.533-0.533v-9.674l1.066-1.010v12.284h-22.388v-15.992zM7.996 13.899c-0.721-0.002-1.354 0.478-1.546 1.174s0.105 1.433 0.725 1.801c0.62 0.368 1.41 0.276 1.928-0.226l1.853 0.93c0.215 0.108 0.476 0.057 0.636-0.123l3.939-4.431 3.872 2.901c0.208 0.156 0.498 0.139 0.686-0.039l3.365-3.188v8.131h-18.124v-12.26h18.124v2.66l-3.771 3.572-3.904-2.927c-0.222-0.166-0.534-0.135-0.718 0.072l-3.993 4.493-1.493-0.746c0.011-0.064 0.018-0.129 0.020-0.193 0-0.883-0.716-1.599-1.599-1.599zM8.529 15.498c0 0.294-0.239 0.533-0.533 0.533s-0.533-0.239-0.533-0.533c0-0.294 0.239-0.533 0.533-0.533s0.533 0.239 0.533 0.533zM11.727 24.027h5.331v0.533c0 0.294-0.239 0.533-0.533 0.533h-4.264c-0.294 0-0.533-0.239-0.533-0.533v-0.533zM1.066 24.56c0-0.294 0.239-0.533 0.533-0.533h9.062v0.533c0 0.883 0.716 1.599 1.599 1.599h4.264c0.883 0 1.599-0.716 1.599-1.599v-0.533h9.062c0.294 0 0.533 0.239 0.533 0.533v2.132c0 0.294-0.239 0.533-0.533 0.533h-25.587c-0.294 0-0.533-0.239-0.533-0.533v-2.132z"></path>
</symbol>
</defs>
</svg>
